# xmcd
#
# Track frame offsets:
# 150
# 10957
# 25703
# 37894
# 46832
# 58329
# 72404
# 85589
# 100205
# 114510
# 128890
# 142707
# 155843
# 168031
# 181394
# 192512
# 206067
# 219329
# 233072
# 248571
#
# Disc length: 3448 seconds
#
#
# Revision: 1
# Processed by: cddbd v1.5.2PL0 Copyright (c) Steve Scherf et al.
# Submitted via: FreeRIP 2.951 
#
DISCID=0a0d7614
DTITLE=Ella Fitzgerald - This Is Gold [CD 2)
DYEAR=2004
DGENRE=Jazz
TTITLE0=Goody Goody
TTITLE1=How High The Moon
TTITLE2=Baby It's Cold Outside
TTITLE3=Come On A My House
TTITLE4=Ella's Contribution To The Blues
TTITLE5=Nowhere Guy
TTITLE6=Angel Eyes
TTITLE7=Early Autumn
TTITLE8=Crying
TTITLE9=Because Of Rain
TTITLE10=Preview
TTITLE11=I'm Gonna Wash That Man Right Outa My Hair
TTITLE12=My Baby Likes To Be-Bop
TTITLE13=Trying
TTITLE14=Walking By The River
TTITLE15=Love You Madly
TTITLE16=I Can't Lie To Myself
TTITLE17=Don't Wake Me Up
TTITLE18=Maybe
TTITLE19=The Greatest There Is
EXTD=
EXTT0=
EXTT1=
EXTT2=
EXTT3=
EXTT4=
EXTT5=
EXTT6=
EXTT7=
EXTT8=
EXTT9=
EXTT10=
EXTT11=
EXTT12=
EXTT13=
EXTT14=
EXTT15=
EXTT16=
EXTT17=
EXTT18=
EXTT19=
PLAYORDER=
